<svg xmlns="http://www.w3.org/2000/svg" width="246.699" height="89.728" viewBox="0 0 246.699 89.728">
  <g id="_403_Icon" data-name="403 Icon" transform="translate(-558.434 -348.693)">
    <path id="Path_17162" data-name="Path 17162" d="M-34.631-15.213v-14.41L1.5-86.545H13.924V-66.6H6.571L-16.206-30.553v.676H35.138v14.664ZM6.909,0V-19.608l.338-6.381V-86.545H24.4V0Z" transform="translate(593.065 436.422)" fill="#2e3192"/>
    <path id="Path_17163" data-name="Path 17163" d="M-.232,1.183a41.1,41.1,0,0,1-16.84-3.275,28.342,28.342,0,0,1-11.621-9.043,22.554,22.554,0,0,1-4.374-13.333h18.425a9.436,9.436,0,0,0,2.092,5.557,12.489,12.489,0,0,0,5.134,3.7A18.981,18.981,0,0,0-.19-13.9a17.5,17.5,0,0,0,7.4-1.479,12.132,12.132,0,0,0,5.029-4.1,10.342,10.342,0,0,0,1.817-6.043,10.289,10.289,0,0,0-1.923-6.149,12.652,12.652,0,0,0-5.494-4.2A21.525,21.525,0,0,0-1.838-37.4H-9.91V-50.837h8.071a17.689,17.689,0,0,0,7.332-1.437,11.745,11.745,0,0,0,4.965-3.993,10.223,10.223,0,0,0,1.775-5.98,10.591,10.591,0,0,0-1.542-5.726,10.546,10.546,0,0,0-4.31-3.867A14.145,14.145,0,0,0-.063-73.234a16.994,16.994,0,0,0-6.8,1.331,12.055,12.055,0,0,0-4.944,3.782A9.9,9.9,0,0,0-13.8-62.374H-31.335a22.534,22.534,0,0,1,4.268-13.185A27.843,27.843,0,0,1-15.889-84.5,37.688,37.688,0,0,1,.021-87.729,35.583,35.583,0,0,1,15.7-84.475a25.975,25.975,0,0,1,10.459,8.769,21.281,21.281,0,0,1,3.7,12.361,16.922,16.922,0,0,1-4.5,12.128,20.676,20.676,0,0,1-11.811,6.17v.676q9.55,1.225,14.558,6.613A18.856,18.856,0,0,1,33.067-24.3,21.185,21.185,0,0,1,28.82-11.156,28.741,28.741,0,0,1,17.009-2.113,42.585,42.585,0,0,1-.232,1.183Z" transform="translate(772.065 436.422)" fill="#2e3192"/>
    <g id="Ellipse_195" data-name="Ellipse 195" transform="translate(637.065 349.421)" fill="none" stroke="#2e3192" stroke-width="12">
      <circle cx="44.5" cy="44.5" r="44.5" stroke="none"/>
      <circle cx="44.5" cy="44.5" r="38.5" fill="none"/>
    </g>
    <path id="Path_17159" data-name="Path 17159" d="M7774.075-15564.381l53.985-47.176" transform="translate(-7119.503 15981.39)" fill="none" stroke="#2e3192" stroke-width="12"/>
  </g>
</svg>
