<svg xmlns="http://www.w3.org/2000/svg" width="248.769" height="96.216" viewBox="0 0 248.769 96.216">
  <g id="_404_Icon" data-name="404 Icon" transform="translate(-514.369 -245.455)">
    <path id="Path_17164" data-name="Path 17164" d="M-34.631-15.213v-14.41L1.5-86.545H13.924V-66.6H6.571L-16.206-30.553v.676H35.138v14.664ZM6.909,0V-19.608l.338-6.381V-86.545H24.4V0Z" transform="translate(549 332)" fill="#2e3192"/>
    <path id="Path_17165" data-name="Path 17165" d="M-34.631-15.213v-14.41L1.5-86.545H13.924V-66.6H6.571L-16.206-30.553v.676H35.138v14.664ZM6.909,0V-19.608l.338-6.381V-86.545H24.4V0Z" transform="translate(728 332)" fill="#2e3192"/>
    <text id="_" data-name="?" transform="translate(634.794 311)" fill="#2e3192" font-size="67" font-family="Inter-ExtraBold, Inter" font-weight="800" letter-spacing="-0.02em"><tspan x="-19" y="0">?</tspan></text>
    <g id="Search_Icon" data-name="Search Icon" transform="translate(594.566 247.623)">
      <g id="Path_78" data-name="Path 78" transform="translate(-4.5 -4.5)" fill="none">
        <path d="M85.27,44.885A40.385,40.385,0,1,1,44.885,4.5,40.385,40.385,0,0,1,85.27,44.885Z" stroke="none"/>
        <path d="M 44.88496398925781 13.49999237060547 C 27.57924270629883 13.49999237060547 13.50000762939453 27.57925033569336 13.50000762939453 44.88499069213867 C 13.50000762939453 62.19073104858398 27.5792236328125 76.26997375488281 44.88494491577148 76.26997375488281 C 62.19068145751953 76.26997375488281 76.26992797851562 62.19073104858398 76.26992797851562 44.88499069213867 C 76.26992797851562 27.57925033569336 62.19068145751953 13.49999237060547 44.88496398925781 13.49999237060547 M 44.88496398925781 4.499992370605469 C 67.18894195556641 4.499992370605469 85.26992797851562 22.58099365234375 85.26992797851562 44.88499069213867 C 85.26992797851562 67.18897247314453 67.18894195556641 85.26997375488281 44.88494491577148 85.26997375488281 C 22.58096313476562 85.26997375488281 4.500007629394531 67.18897247314453 4.500007629394531 44.88499069213867 C 4.500007629394531 22.58097076416016 22.58096313476562 4.499992370605469 44.88496398925781 4.499992370605469 Z" stroke="none" fill="#2e3192"/>
      </g>
      <path id="Path_79" data-name="Path 79" d="M46.934,46.934,24.975,24.975" transform="translate(43.932 43.931)" fill="none" stroke="#2e3192" stroke-width="9"/>
    </g>
  </g>
</svg>
