<svg xmlns="http://www.w3.org/2000/svg" width="244.987" height="89.728" viewBox="0 0 244.987 89.728">
  <g id="_500_Icon" data-name="500 Icon" transform="translate(-562.026 -348.693)">
    <path id="Path_17160" data-name="Path 17160" d="M.275,1.183a36.994,36.994,0,0,1-15.953-3.3A27.775,27.775,0,0,1-26.771-11.2a23.338,23.338,0,0,1-4.268-13.269H-13.29a10.8,10.8,0,0,0,4.226,8.156A14.543,14.543,0,0,0,.275-13.185,14.932,14.932,0,0,0,7.9-15.107a13.612,13.612,0,0,0,5.2-5.367A16.268,16.268,0,0,0,14.981-28.4a16.277,16.277,0,0,0-1.923-8.029,13.887,13.887,0,0,0-5.3-5.409A15.545,15.545,0,0,0,.021-43.822a18.2,18.2,0,0,0-7.374,1.564A13.34,13.34,0,0,0-12.91-37.99l-16.27-2.916,4.1-45.639H27.827v14.96H-9.994l-2.24,21.679h.507a16.759,16.759,0,0,1,6.888-5.325A24.447,24.447,0,0,1,5.472-57.345a26.574,26.574,0,0,1,13.945,3.676A26.517,26.517,0,0,1,29.095-43.59,29.546,29.546,0,0,1,32.6-28.863a29.263,29.263,0,0,1-4.036,15.53A28.6,28.6,0,0,1,17.2-2.683,35.591,35.591,0,0,1,.275,1.183Z" transform="translate(593.065 436.422)" fill="#2e3192"/>
    <path id="Path_17161" data-name="Path 17161" d="M0,1.9q-10.9-.042-18.742-5.367T-30.785-18.89q-4.2-10.1-4.162-24.3,0-14.157,4.2-24.13A33.074,33.074,0,0,1-18.7-82.51Q-10.86-87.729,0-87.729t18.7,5.24A33.348,33.348,0,0,1,30.764-67.3q4.226,9.952,4.184,24.108,0,14.241-4.2,24.341T18.721-3.423Q10.9,1.9,0,1.9ZM0-13.269q7.438,0,11.875-7.48T16.27-43.188a56.841,56.841,0,0,0-2.007-16.4q-2.007-6.55-5.663-9.846a12.425,12.425,0,0,0-8.6-3.3q-7.4,0-11.832,7.4t-4.479,22.143A58.5,58.5,0,0,0-14.3-26.559Q-12.3-19.9-8.621-16.586A12.457,12.457,0,0,0,0-13.269Z" transform="translate(772.065 436.422)" fill="#2e3192"/>
    <text id="_" data-name="!" transform="translate(681.065 416.422)" fill="#2e3192" font-size="63" font-family="Inter-ExtraBold, Inter" font-weight="800" letter-spacing="-0.02em"><tspan x="-10" y="0">!</tspan></text>
    <g id="Ellipse_195" data-name="Ellipse 195" transform="translate(637.065 349.421)" fill="none" stroke="#2e3192" stroke-width="12">
      <circle cx="44.5" cy="44.5" r="44.5" stroke="none"/>
      <circle cx="44.5" cy="44.5" r="38.5" fill="none"/>
    </g>
  </g>
</svg>
